<svg xmlns="http://www.w3.org/2000/svg" width="1200" height="330" viewBox="0 0 1200 330" role="img" aria-labelledby="title description">
  <title id="title">PolitiqSync</title>
  <desc id="description">Territorial intelligence and field operations.</desc>
  <defs>
    <linearGradient id="territory" x1="0" y1="0" x2="1" y2="1"><stop stop-color="#151713"/><stop offset="1" stop-color="#25261f"/></linearGradient>
  </defs>
  <rect width="1200" height="330" rx="32" fill="url(#territory)"/>
  <path d="M713 69c88-34 195-2 257 49 70 57 110 138 51 183-58 45-158 7-237-19-87-28-164-75-147-139 9-34 35-59 76-74Z" fill="#aeb5aa" opacity=".7"/>
  <path d="M672 246c45-65 101-69 142-124 37-49 88-26 135-78" fill="none" stroke="#f3f0e8" stroke-width="2" stroke-dasharray="4 8"/>
  <g fill="#ff761a"><circle cx="672" cy="246" r="10"/><circle cx="814" cy="122" r="10"/><circle cx="949" cy="44" r="10"/></g>
  <text x="42" y="45" font-family="monospace" font-size="9" letter-spacing="2.5" fill="#fff" opacity=".5">04 / TERRITORIAL INTELLIGENCE</text>
  <text x="42" y="150" font-family="Georgia, serif" font-size="96" letter-spacing="-5" fill="#f3f0e8">Politiq<tspan font-style="italic" fill="#ff761a">Sync</tspan></text>
  <text x="46" y="197" font-family="Georgia, serif" font-size="28" font-style="italic" fill="#dec9a7">Command, field execution, and decision intelligence.</text>
  <line x1="42" y1="250" x2="1158" y2="250" stroke="#fff" opacity=".14"/>
  <text x="42" y="286" font-family="monospace" font-size="9" letter-spacing="1.5" fill="#fff" opacity=".6">COMMAND WEB</text>
  <text x="270" y="286" font-family="monospace" font-size="9" letter-spacing="1.5" fill="#fff" opacity=".6">MULTI-TENANT API</text>
  <text x="537" y="286" font-family="monospace" font-size="9" letter-spacing="1.5" fill="#fff" opacity=".6">NATIVE IOS</text>
  <text x="744" y="286" font-family="monospace" font-size="9" letter-spacing="1.5" fill="#fff" opacity=".6">IOS / ANDROID</text>
  <text x="980" y="286" font-family="monospace" font-size="9" letter-spacing="1.5" fill="#fff" opacity=".6">OFFLINE FIELD OPS</text>
</svg>

